<?xml version="1.0" encoding="utf-8"?>
<!-- Generator: Adobe Illustrator 27.5.0, SVG Export Plug-In . SVG Version: 6.00 Build 0)  -->
<svg version="1.1" xmlns="http://www.w3.org/2000/svg" xmlns:xlink="http://www.w3.org/1999/xlink" x="0px" y="0px"
	 viewBox="0 0 500 500" style="enable-background:new 0 0 500 500;" xml:space="preserve">
<g id="OBJECTS">
	<g>
		<ellipse style="fill:#E4D6CD;" cx="251.154" cy="419.137" rx="29.43" ry="3.831"/>
		<path style="fill:#679458;" d="M257.963,77.334c-9.194,1.936-13.203,24.991-21.219,34.893s43.853-0.472,32.064-29.235
			C268.808,82.993,266.922,75.448,257.963,77.334z"/>
		<g>
			<path style="fill:#85A979;" d="M252.908,162.465c1.381,18.728-19.931,36.494-20.596,37.044l-0.017,0.014
				c0,0-8.687-10.603-6.644-25.082c1.792-12.823,11.47-12.646,18.717-25.648c0.95-1.692,1.849-3.607,2.686-5.796l0.031,0.003
				C247.461,143.08,251.569,144.333,252.908,162.465z"/>
			<path style="fill:#679458;" d="M252.908,162.465c1.381,18.728-19.931,36.494-20.596,37.044l-0.017,0.014
				c0,0-1.805-19.38,12.073-50.73c0.843-1.893,1.728-3.826,2.686-5.796l0.031,0.003C247.461,143.08,251.569,144.333,252.908,162.465
				z"/>
		</g>
		<path style="fill:#85A979;" d="M245.555,227.743c-9.268,9.268-9.362,27.697-3.121,36.669s17.945,13.653,21.455,14.044
			s5.852-8.972,3.511-15.604C265.06,256.221,247.115,226.183,245.555,227.743z"/>
		<g>
			<path style="fill:#85A979;" d="M242.233,348.357c0,0,17.303-15.621,28.17-37.094l0.909,8.976c0,0-3.365,23.312-13.699,27.878
				c-10.334,4.566-13.218,1.202-13.218,1.202L242.233,348.357z"/>
			<path style="fill:#679458;" d="M270.403,311.263c7.802,6.632,5.518,39.093-22.236,46.032
				c-9.362,2.341-19.505-8.972-14.824-12.093c0,0,15.859,3.876,26.193-4.295C268.883,333.517,270.403,311.263,270.403,311.263z"/>
		</g>
		<g>
			<path style="fill:#85A979;" d="M231.292,389.553c0,0,30.147,23.605,50.3,9.223c0,0-13.982,14.592-29.859,14.791
				C251.733,413.566,225.338,402.452,231.292,389.553z"/>
			<path style="fill:#679458;" d="M250.977,416.39c-22.587-1.221-29.357-21.389-24.744-28.518s15.914,23.647,31.851,21.13
				s23.508-10.226,23.508-10.226S266.494,417.228,250.977,416.39z"/>
		</g>
		<path style="fill:none;stroke:#344A2C;stroke-linecap:round;stroke-linejoin:round;stroke-miterlimit:10;" d="M236.188,113.865
			c0,0,26.179-8.254,30.291-34.294"/>
		<path style="fill:none;stroke:#344A2C;stroke-linecap:round;stroke-linejoin:round;stroke-miterlimit:10;" d="M247.084,143.001
			c0,0-10.967,21.488-13.139,38.428"/>
		<path style="fill:none;stroke:#344A2C;stroke-linecap:round;stroke-linejoin:round;stroke-miterlimit:10;" d="M264.451,278.101
			c0.968-4.504-8.532-17.011-13.099-24.841c-6.677-11.446-5.286-25.082-5.286-25.082"/>
		<path style="fill:none;stroke:#344A2C;stroke-linecap:round;stroke-linejoin:round;stroke-miterlimit:10;" d="M248.907,345.566
			c0,0,19.334-2.365,21.496-34.303"/>
		<path style="fill:none;stroke:#344A2C;stroke-linecap:round;stroke-linejoin:round;stroke-miterlimit:10;" d="M233.803,391.852
			c0,0,10.395,13.994,17.192,16.659"/>
		<path style="fill:none;stroke:#344A2C;stroke-linecap:round;stroke-linejoin:round;stroke-miterlimit:10;" d="M262.457,408.244
			c0,0,15.881-4.678,19.135-9.469"/>
		<path style="fill:none;stroke:#E4D6CD;stroke-linecap:round;stroke-linejoin:round;stroke-miterlimit:10;" d="M265.925,222.467
			c0,0,13.122,7.428,13.617,20.798"/>
		<path style="fill:none;stroke:#E4D6CD;stroke-linecap:round;stroke-linejoin:round;stroke-miterlimit:10;" d="M272.293,222.613
			c0,0,8.695,4.922,9.023,13.781"/>
		<path style="fill:none;stroke:#E4D6CD;stroke-linecap:round;stroke-linejoin:round;stroke-miterlimit:10;" d="M228.871,102.702
			c0,0-6.958,9.099-1.427,20.518"/>
		<path style="fill:none;stroke:#E4D6CD;stroke-linecap:round;stroke-linejoin:round;stroke-miterlimit:10;" d="M222.448,106.449
			c0,0-3.39,7.137,0.714,13.738"/>
		<path style="fill:none;stroke:#E4D6CD;stroke-linecap:round;stroke-linejoin:round;stroke-miterlimit:10;" d="M218.408,387.838
			c0,0,4.189-10.054,12.777-9.216"/>
		<path style="fill:none;stroke:#E4D6CD;stroke-linecap:round;stroke-linejoin:round;stroke-miterlimit:10;" d="M218.408,382.392
			c0,0,2.304-6.284,7.54-6.074"/>
	</g>
</g>
</svg>
