<?xml version="1.0" encoding="utf-8"?>
<!-- Generator: Adobe Illustrator 27.5.0, SVG Export Plug-In . SVG Version: 6.00 Build 0)  -->
<svg version="1.1" id="Capa_1" xmlns="http://www.w3.org/2000/svg" xmlns:xlink="http://www.w3.org/1999/xlink" x="0px" y="0px"
	 viewBox="0 0 2122 2122" style="enable-background:new 0 0 2122 2122;" xml:space="preserve">
<path style="fill:#EF7714;" d="M1813.708,1333.808c-37.077-61.727-120.865-85.997-151.571-151.128
	c-28.188-59.788-1.52-133.201-24.261-195.262c-41.252-112.594-210.85-121.766-270.774-225.629
	c-35.893-62.214-25.559-148.677-77.447-198.341c-37.427-35.824-94.655-39.479-140.864-62.904
	c-82.818-41.98-121.189-141.778-199.235-192.08c-87.001-56.075-198.842-5.335-301.729-16.665
	c-81.767-9.005-143.254,12.322-191.237,49.194c39.957,71.45,83.194,140.92,130.246,207.207
	c12.781-37.312,35.416-71.393,64.54-98.312c5.73-5.293,11.705-10.314,17.905-15.025c110.477-83.993,286.689-62.982,359.989,59.254
	c2.053,3.424,3.995,6.911,5.887,10.428c4.035-0.743,8.055-1.644,12.046-2.905c3.941-1.246,8.146,0.939,9.391,4.88
	c1.246,3.941-0.939,8.146-4.88,9.391c-3.169,1.002-6.342,1.848-9.516,2.556c19.686,41.146,32.541,86.17,61.479,121.263
	c68.295,82.816,206.328,87.503,262.752,178.82c21.171,34.262,26.579,74.379,30.988,114.976c6.104-0.491,12.145-1.358,18.118-2.81
	c4.016-0.977,8.063,1.487,9.04,5.502c0.977,4.016-1.486,8.063-5.502,9.04c-6.685,1.626-13.374,2.592-20.047,3.148
	c1.843,17.08,3.823,34.13,7.043,50.75c8.183,42.224,25.096,82.643,48.938,118.43c3.746-0.184,7.493-0.337,11.248-0.338
	c9.512,0,19.044,0.605,28.546,1.893c14.905,2.026,29.429,5.62,43.601,8.632c14.171,3.024,27.969,5.458,41.332,5.451
	c6.196,0,12.3-0.516,18.353-1.715c4.054-0.804,7.992,1.831,8.796,5.885c0.804,4.054-1.831,7.992-5.885,8.796
	c-7.137,1.415-14.239,2.002-21.264,2.001c-15.166-0.006-29.968-2.701-44.449-5.778c-14.48-3.089-28.661-6.57-42.495-8.44
	c-8.8-1.193-17.657-1.758-26.535-1.758c-0.311,0-0.624,0.026-0.935,0.028c13.96,18.666,29.876,35.863,47.538,51.084
	c46.675,40.222,105.859,68.349,138.943,120.326c18.791,29.523,26.721,62.461,29.535,97.041c1.271,0.032,2.546,0.094,3.812,0.093
	c3.665,0,7.307-0.142,10.93-0.449c4.118-0.349,7.74,2.706,8.089,6.824s-2.707,7.74-6.825,8.089
	c-4.077,0.345-8.143,0.502-12.195,0.502c-0.964,0-1.923-0.054-2.885-0.072c3.776,91.547-22.219,192.712,22.616,272.453
	c-23.653-5.131-47.329-10.392-70.928-15.982c-0.932,1.089-2.088,2.011-3.484,2.634c-5.033,2.245-10.932-0.014-13.178-5.046
	c-0.271-0.607-0.547-1.198-0.818-1.804c-41.149-10.087-81.965-21.394-121.88-35.131c0.345,0.986,0.685,1.971,1.031,2.959l0,0
	c1.364,3.901-0.693,8.17-4.594,9.534c-3.901,1.364-8.17-0.693-9.534-4.594c-1.648-4.722-3.304-9.488-4.921-14.291
	c-23.641-8.649-46.938-18.208-69.752-28.975c-38.875-18.346-76.4-40.522-110.764-66.524c-0.729,2.762-3.004,4.985-6.005,5.481
	c-4.078,0.674-7.93-2.085-8.604-6.163c-0.651-3.937-0.982-7.842-1.181-11.731c-42.175-34.447-78.782-75.094-105.828-122.31
	c-33.455-58.408-51.384-124.618-78.199-186.208c1.061,10.328,1.647,20.707,1.649,31.11c0,9.406-0.458,18.828-1.415,28.243
	c-1.914,18.764-5.719,37.241-8.985,55.376c-3.276,18.134-6.006,35.912-6,53.201c0,10.098,0.922,20.026,3.173,29.827
	c0.925,4.028-1.59,8.043-5.619,8.969c-4.028,0.925-8.043-1.59-8.968-5.619c-2.547-11.087-3.553-22.171-3.553-33.177
	c0.005-18.855,2.93-37.487,6.238-55.857c3.317-18.369,7.024-36.487,8.825-54.234c0.904-8.892,1.339-17.808,1.339-26.728
	c0.005-26.654-3.901-53.364-10.674-79.515c-2.872-5.01-5.854-9.963-8.971-14.845c-44.994-70.492-113.929-121.983-183.8-167.936
	c-18.857-12.402-37.947-24.569-56.941-36.875c8.215,31.832,13.161,64.786,13.163,97.728c0,22.511-2.307,45.015-7.459,67.107
	c-5.052,21.627-12.644,42.533-18.858,63.114c-6.232,20.582-11.062,40.781-11.053,60.911c0,3.912,0.181,7.825,0.567,11.748
	c0.405,4.113-2.601,7.776-6.715,8.18c-4.113,0.405-7.776-2.602-8.18-6.715c-0.436-4.435-0.639-8.84-0.639-13.213
	c0.01-22.529,5.325-44.148,11.693-65.242c6.386-21.095,13.846-41.722,18.609-62.182c4.866-20.865,7.068-42.218,7.068-63.708
	c0.003-36.349-6.309-73.091-16.624-108.344c-0.17-0.584-0.351-1.172-0.524-1.757c-44.809-29.517-88.444-60.559-126.432-98.276
	c-23.076-22.913-43.952-48.896-60.76-76.977c0.329,5.879,0.554,11.761,0.555,17.64c0,24.531-2.961,49.003-9.707,72.78
	c-5.88,20.687-14.388,40.469-21.28,59.966c-6.915,19.501-12.182,38.627-12.17,57.924c0,2.371,0.079,4.747,0.243,7.13
	c0.284,4.123-2.829,7.696-6.952,7.979c-4.123,0.284-7.696-2.829-7.979-6.952c-0.189-2.737-0.278-5.456-0.278-8.158
	c0.011-22.037,5.921-42.817,13.028-62.919c7.129-20.106,15.488-39.623,20.99-59.056c6.322-22.286,9.138-45.366,9.138-68.695
	c0.001-18.303-1.768-36.754-4.896-55.065c-13.946-32.199-21.967-66.427-21.739-101.522c-0.033-1.104-0.109-2.202-0.109-3.309
	c0-3.747,0.207-7.516,0.631-11.272c0.722-9.401,2.103-18.711,4.084-27.891c-50.465-69.896-96.556-143.346-138.952-218.913
	c-53.927,48.104-89.583,116.123-118.415,178.883c-27.447,59.752-53.975,121.764-57.435,187.425
	c-3.459,65.664,20.592,136.548,75.659,172.482c50.141,32.719,120.007,33.873,159.422,78.94
	c64.283,73.508,3.771,211.8,79.435,273.532c52.363,42.721,136.555,16.662,192.356,54.784
	c75.595,51.647,54.908,187.267,135.055,231.525c61.21,33.803,144.233-9.398,205.113,24.994
	c44.601,25.196,59.057,81.379,88.791,123.091c67.834,95.159,203.174,103.924,320.019,106.036
	c116.84,2.112,229.422,42.29,313.361,118.068c1.223-116.355-56.967-228.591,0.846-319.361
	C1875.79,1520.639,1852.606,1398.576,1813.708,1333.808z"/>
<path style="fill:#E56A0D;" d="M1289.399,1459.282c5.052-17.252,10.846-34.084,14.29-50.621c2.874-13.77,4.206-27.758,4.206-41.842
	c0.005-34.856-8.183-70.33-21.273-104.13c-5.899-15.293-13.139-30.968-17.012-48.095c-1.563-6.957-2.51-14.177-2.511-21.454
	c-0.002-8.231,1.239-16.573,4.214-24.543c-25.131-22.616-50.939-43.736-77.434-63.405
	c-49.462-36.736-102.208-69.286-154.865-102.537c-0.375,3.04-0.615,6.117-0.615,9.245c-0.003,9.383,1.618,19.073,4.276,28.398
	c4.952,17.457,13.443,34.336,21.227,52.09c16.266,37.2,28.164,76.996,32.336,117.595c26.815,61.591,44.743,127.8,78.199,186.208
	c27.046,47.216,63.653,87.863,105.828,122.31c-0.099-1.937-0.224-3.878-0.224-5.801
	C1280.052,1494.258,1284.365,1476.534,1289.399,1459.282z"/>
<path style="fill:#E56A0D;" d="M1463.215,1557.649c0.01-22.689,4.153-45.123,8.166-67.131c4.032-22.007,7.932-43.588,7.922-64.399
	c0-4.274-0.227-8.505-0.581-12.714c-59.714-90.837-124.732-168.262-195.168-233.6c-0.998,4.283-1.486,8.743-1.487,13.338
	c-0.001,5.972,0.785,12.12,2.146,18.17c3.367,15.068,10.213,30.132,16.367,45.975c13.59,35.115,22.276,72.327,22.282,109.533
	c0,15.027-1.422,30.05-4.523,44.9c-3.724,17.795-9.674,34.967-14.575,51.762c-4.92,16.795-8.768,33.161-8.757,49.22
	c0,5.044,0.374,10.065,1.205,15.091c0.178,1.076,0.104,2.132-0.158,3.122c34.365,26.002,71.889,48.179,110.764,66.524
	c22.814,10.767,46.111,20.326,69.752,28.975c-5.7-16.934-10.824-34.423-12.619-52.92
	C1463.442,1568.205,1463.215,1562.921,1463.215,1557.649z"/>
<path style="fill:#E56A0D;" d="M623.032,572.304c10.114,0.005,20.635-2.394,30.797-6.351c18.515-7.175,36.495-19.386,55.394-30.609
	c50.609-29.971,106.033-50.104,162.436-50.122c9.131,0,18.285,0.53,27.436,1.635c19.951,2.414,39.554,7.413,58.744,11.714
	c19.188,4.316,37.941,7.921,56.038,7.912c7.192-0.001,14.269-0.646,21.279-1.937c-1.891-3.517-3.834-7.004-5.887-10.428
	c-73.3-122.236-249.512-143.247-359.989-59.254c-6.2,4.711-12.175,9.732-17.905,15.025c-29.124,26.919-51.759,61-64.54,98.312
	c4.679,6.594,9.404,13.149,14.16,19.677C608.062,570.898,615.42,572.299,623.032,572.304z"/>
<path style="fill:#E56A0D;" d="M954.561,513.175c-19.456-4.374-38.609-9.216-57.26-11.458c-8.538-1.031-17.089-1.527-25.642-1.527
	c-52.769-0.017-105.769,18.97-154.808,48.032c-18.368,10.852-36.889,23.596-57.596,31.681c-11.486,4.463-23.755,7.363-36.223,7.368
	c-2.68,0.001-5.37-0.158-8.058-0.444c61.657,82.492,129.641,159.453,205.115,228.356c4.041,0.868,8.163,1.285,12.36,1.288
	c10.113,0.005,20.635-2.394,30.797-6.351c18.517-7.175,36.494-19.385,55.394-30.609c50.609-29.971,106.033-50.104,162.438-50.122
	c9.132,0,18.285,0.53,27.437,1.635c19.951,2.413,39.553,7.413,58.743,11.713c19.188,4.316,37.941,7.922,56.039,7.913
	c11.332-0.001,22.399-1.391,33.323-4.842c3.941-1.246,8.146,0.939,9.391,4.88c1.245,3.941-0.939,8.146-4.88,9.391
	c-12.608,3.986-25.281,5.539-37.834,5.538c-20.072-0.009-39.858-3.916-59.317-8.276c-19.456-4.375-38.609-9.216-57.259-11.458
	c-8.539-1.031-17.09-1.527-25.643-1.527c-52.771-0.017-105.771,18.97-154.81,48.032c-18.367,10.851-36.887,23.596-57.595,31.681
	c-9.832,3.821-20.251,6.371-30.865,7.065c35.584,31.403,72.798,61.029,111.757,88.624c28.462,20.175,57.827,39.214,87.47,58.021
	c3.241,0.48,6.546,0.729,9.906,0.729c8.975,0.003,18.273-1.635,27.204-4.306c16.118-4.796,31.701-12.884,48.143-20.348
	c44.265-20.043,92.621-33.471,141.628-33.479c7.616,0,15.246,0.325,22.875,1.003c34.272,3.103,67.631,12.713,99.116,12.647
	c3.869,0,7.699-0.193,11.511-0.499c-4.41-40.597-9.817-80.714-30.988-114.976c-56.424-91.318-194.457-96.004-262.752-178.82
	c-28.938-35.092-41.794-80.117-61.479-121.263c-9.456,2.11-18.921,2.982-28.32,2.981
	C993.806,521.441,974.02,517.535,954.561,513.175z"/>
<path style="fill:#E56A0D;" d="M1486.104,1493.208c-4.031,22.006-7.932,43.601-7.922,64.441c0,4.843,0.208,9.646,0.667,14.411
	c1.948,20.365,8.631,40.403,15.739,60.748c39.915,13.737,80.731,25.044,121.88,35.131
	c-37.946-84.822-78.784-161.584-122.541-230.889C1492.896,1455.991,1489.47,1474.745,1486.104,1493.208z"/>
<path style="fill:#E56A0D;" d="M1561.303,1398.761c-2.896,0-5.78,0.089-8.651,0.278c-17.308,1.125-34.557,6.008-52.096,11.355
	c48.545,74.845,93.52,158.346,134.956,251.216c1.623,3.636,0.866,7.708-1.563,10.544c23.599,5.59,47.275,10.851,70.928,15.982
	c-44.834-79.741-18.84-180.906-22.616-272.453c-20.594-0.378-40.772-4.531-60.522-8.579
	C1601.067,1402.845,1580.858,1398.749,1561.303,1398.761z"/>
<path style="fill:#E56A0D;" d="M787.745,855.604c0.002-12.378,1.994-24.947,7.109-36.608
	c-74.224-69.276-141.149-146.099-201.813-228.14c-1.947,6.689-2.841,13.841-2.84,21.183c0,4.241,0.289,8.528,0.814,12.782
	c2.052,16.772,7.632,33.683,12.41,51.326c6.875,25.49,11.49,51.777,12.965,78.149c16.808,28.081,37.683,54.064,60.76,76.977
	c37.988,37.717,81.623,68.759,126.432,98.276c-5.176-17.508-11.419-35.392-14.329-54.583
	C788.297,868.632,787.745,862.136,787.745,855.604z"/>
<path style="fill:#E56A0D;" d="M1323.988,1169.061c-6.325,1.597-12.943,2.628-19.653,2.884
	c67.605,63.828,130.135,138.621,187.69,225.404c18.996-5.807,38.677-11.852,59.643-13.245c3.22-0.212,6.431-0.31,9.633-0.31
	c21.624,0.012,42.775,4.413,63.449,8.65c19.333,3.984,38.241,7.78,56.583,8.251c-2.813-34.58-10.744-67.517-29.535-97.041
	c-33.084-51.978-92.268-80.104-138.943-120.326c-17.662-15.221-33.578-32.418-47.538-51.084c-33.802,0.145-67.916,8.454-99.9,21.38
	C1352.312,1158.9,1338.885,1165.272,1323.988,1169.061z"/>
<path style="fill:#E56A0D;" d="M1285.467,936.288c-7.174-0.638-14.361-0.944-21.552-0.944
	c-46.243-0.009-92.624,12.742-135.454,32.146c-15.943,7.202-32.091,15.679-50.034,21.055c-5.866,1.751-11.962,3.072-18.157,3.923
	c49.079,30.921,98.496,61.823,145.504,96.702c27.397,20.336,54.05,42.193,79.981,65.592c4.907,1.569,10.133,2.325,15.564,2.326
	c6.244,0.002,12.71-0.945,18.998-2.537c13.032-3.281,25.876-9.285,39.496-14.804c30.179-12.187,62.466-20.553,95.193-22.159
	c-23.843-35.786-40.755-76.205-48.938-118.43c-3.221-16.62-5.201-33.67-7.043-50.75c-4.381,0.365-8.757,0.586-13.118,0.586
	C1351.502,948.928,1317.793,939.091,1285.467,936.288z"/>
<path style="fill:#E56A0D;" d="M1028.28,1044.398c-2.957-10.396-4.844-21.399-4.847-32.496c0-5.992,0.639-12.006,1.892-17.946
	c-29.41-18.675-58.712-37.672-87.296-57.912c-46.19-32.729-89.901-68.255-131.375-106.114c-2.732,8.027-3.943,16.734-3.942,25.675
	c0,5.687,0.483,11.449,1.339,17.13c2.689,17.946,8.959,35.769,14.418,54.368c1.435,4.908,2.782,9.852,4.064,14.819
	c18.995,12.306,38.084,24.473,56.941,36.875c69.871,45.953,138.806,97.444,183.8,167.936c3.117,4.883,6.099,9.836,8.971,14.845
	c-5.584-21.56-13.109-42.742-22.056-63.191C1042.661,1081.137,1033.788,1063.687,1028.28,1044.398z"/>
<path style="fill:#E56A0D;" d="M576.16,626.655c-0.459-3.722-0.704-7.506-0.818-11.306c-0.228,35.094,7.793,69.323,21.739,101.522
	c-2.113-12.37-4.83-24.677-8.108-36.825C584.382,662.955,578.494,645.41,576.16,626.655z"/>
<path style="fill:#E56A0D;" d="M579.948,572.876c-1.981,9.18-3.362,18.49-4.084,27.891c0.94-8.325,3.043-16.571,6.655-24.355
	C581.664,575.232,580.802,574.058,579.948,572.876z"/>
<path style="fill:#202043;" d="M582.52,576.412c-3.612,7.785-5.715,16.031-6.655,24.355c-0.424,3.756-0.631,7.526-0.631,11.272
	c0,1.107,0.076,2.205,0.109,3.309c0.113,3.8,0.358,7.584,0.818,11.306c2.333,18.756,8.222,36.3,12.813,53.391
	c3.278,12.148,5.994,24.455,8.108,36.825c3.128,18.311,4.897,36.763,4.896,55.065c0,23.33-2.816,46.409-9.138,68.695
	c-5.502,19.432-13.86,38.95-20.99,59.056c-7.107,20.102-13.017,40.882-13.028,62.919c0,2.702,0.09,5.421,0.278,8.158
	c0.283,4.123,3.856,7.236,7.979,6.952c4.123-0.283,7.236-3.856,6.952-7.979c-0.164-2.384-0.243-4.76-0.243-7.13
	c-0.012-19.297,5.255-38.423,12.17-57.924c6.892-19.497,15.4-39.279,21.28-59.966c6.745-23.778,9.707-48.249,9.707-72.78
	c0-5.879-0.226-11.761-0.555-17.64c-1.475-26.372-6.09-52.659-12.965-78.149c-4.777-17.643-10.358-34.554-12.41-51.326
	c-0.525-4.254-0.814-8.541-0.814-12.782c-0.001-7.343,0.894-14.495,2.84-21.183c60.665,82.042,127.589,158.865,201.813,228.14
	c-5.115,11.661-7.107,24.23-7.109,36.608c0,6.532,0.552,13.028,1.507,19.361c2.91,19.192,9.153,37.075,14.329,54.583
	c0.173,0.585,0.354,1.173,0.524,1.757c10.315,35.253,16.627,71.996,16.624,108.344c0,21.49-2.202,42.843-7.068,63.708
	c-4.763,20.46-12.223,41.087-18.609,62.182c-6.368,21.093-11.683,42.713-11.693,65.242c0,4.373,0.202,8.778,0.639,13.213
	c0.405,4.113,4.068,7.119,8.18,6.715c4.114-0.405,7.119-4.068,6.715-8.18c-0.386-3.922-0.567-7.835-0.567-11.748
	c-0.009-20.129,4.821-40.328,11.053-60.911c6.213-20.581,13.806-41.486,18.858-63.114c5.153-22.093,7.459-44.596,7.459-67.107
	c-0.002-32.942-4.948-65.896-13.163-97.728c-1.282-4.967-2.628-9.912-4.064-14.819c-5.459-18.599-11.73-36.423-14.418-54.368
	c-0.857-5.681-1.339-11.443-1.339-17.13c-0.001-8.941,1.21-17.648,3.942-25.675c41.473,37.859,85.184,73.385,131.375,106.114
	c28.583,20.24,57.886,39.237,87.296,57.912c-1.253,5.94-1.892,11.954-1.892,17.946c0.003,11.097,1.89,22.1,4.847,32.496
	c5.508,19.29,14.381,36.739,21.91,53.991c8.946,20.449,16.472,41.631,22.056,63.191c6.773,26.151,10.679,52.861,10.674,79.515
	c0,8.92-0.434,17.836-1.339,26.728c-1.801,17.747-5.507,35.866-8.825,54.234c-3.308,18.37-6.232,37.002-6.238,55.857
	c0,11.006,1.006,22.09,3.553,33.177c0.925,4.028,4.94,6.544,8.968,5.619c4.029-0.926,6.544-4.941,5.619-8.969
	c-2.252-9.801-3.173-19.729-3.173-29.827c-0.005-17.289,2.724-35.067,6-53.201c3.266-18.135,7.071-36.611,8.985-55.376
	c0.957-9.415,1.415-18.837,1.415-28.243c-0.001-10.403-0.588-20.781-1.649-31.11c-4.172-40.599-16.07-80.395-32.336-117.595
	c-7.784-17.755-16.275-34.633-21.227-52.09c-2.657-9.326-4.278-19.015-4.276-28.398c0-3.129,0.24-6.205,0.615-9.245
	c52.657,33.252,105.403,65.802,154.865,102.537c26.495,19.669,52.302,40.789,77.434,63.405c-2.975,7.97-4.217,16.312-4.214,24.543
	c0.001,7.277,0.948,14.497,2.511,21.454c3.873,17.127,11.113,32.801,17.012,48.095c13.089,33.8,21.278,69.273,21.273,104.13
	c0,14.084-1.332,28.072-4.206,41.842c-3.444,16.536-9.238,33.369-14.29,50.621c-5.034,17.252-9.347,34.976-9.358,53.42
	c0,1.923,0.125,3.864,0.224,5.801c0.199,3.889,0.53,7.794,1.181,11.731c0.674,4.078,4.525,6.837,8.604,6.163
	c3.001-0.496,5.276-2.719,6.005-5.481c0.262-0.99,0.336-2.046,0.158-3.122c-0.831-5.026-1.205-10.047-1.205-15.091
	c-0.011-16.06,3.837-32.425,8.757-49.22c4.901-16.795,10.851-33.967,14.575-51.762c3.1-14.85,4.523-29.873,4.523-44.9
	c-0.005-37.206-8.692-74.418-22.282-109.533c-6.155-15.844-13-30.907-16.367-45.975c-1.361-6.05-2.147-12.198-2.146-18.17
	c0.001-4.594,0.489-9.055,1.487-13.338c70.436,65.338,135.454,142.764,195.168,233.6c0.354,4.209,0.581,8.441,0.581,12.714
	c0.01,20.811-3.891,42.392-7.922,64.399c-4.012,22.009-8.155,44.442-8.166,67.131c0,5.272,0.226,10.556,0.736,15.847
	c1.795,18.497,6.92,35.986,12.619,52.92c1.616,4.803,3.273,9.569,4.921,14.291c1.364,3.901,5.633,5.958,9.534,4.594
	c3.901-1.364,5.958-5.633,4.594-9.534l0,0c-0.346-0.988-0.687-1.973-1.031-2.959c-7.108-20.345-13.791-40.383-15.739-60.748
	c-0.459-4.765-0.667-9.568-0.667-14.411c-0.01-20.84,3.891-42.435,7.922-64.441c3.366-18.463,6.792-37.217,7.824-56.158
	c43.757,69.305,84.595,146.067,122.541,230.889c0.271,0.606,0.547,1.197,0.818,1.804c2.245,5.032,8.145,7.292,13.178,5.046
	c1.395-0.623,2.551-1.545,3.484-2.634c2.429-2.836,3.186-6.908,1.563-10.544c-41.436-92.87-86.411-176.371-134.956-251.216
	c17.54-5.347,34.788-10.23,52.096-11.355c2.871-0.189,5.754-0.278,8.651-0.278c19.555-0.012,39.764,4.083,60.437,8.344
	c19.75,4.048,39.928,8.201,60.522,8.579c0.962,0.017,1.921,0.071,2.885,0.072c4.052,0,8.117-0.157,12.195-0.502
	c4.118-0.349,7.174-3.971,6.825-8.089s-3.971-7.174-8.089-6.824c-3.623,0.307-7.266,0.449-10.93,0.449
	c-1.265,0.001-2.541-0.06-3.812-0.093c-18.341-0.471-37.25-4.267-56.583-8.251c-20.674-4.237-41.826-8.637-63.449-8.65
	c-3.203-0.001-6.413,0.098-9.633,0.31c-20.966,1.394-40.648,7.439-59.643,13.245c-57.556-86.784-120.085-161.576-187.69-225.404
	c6.71-0.256,13.328-1.287,19.653-2.884c14.897-3.789,28.324-10.161,41.431-15.437c31.984-12.925,66.098-21.235,99.9-21.38
	c0.312-0.001,0.624-0.028,0.935-0.028c8.878,0,17.735,0.564,26.535,1.758c13.833,1.87,28.014,5.351,42.495,8.44
	c14.482,3.078,29.284,5.772,44.449,5.778c7.025,0,14.126-0.586,21.264-2.001c4.054-0.804,6.689-4.742,5.885-8.796
	c-0.804-4.054-4.742-6.689-8.796-5.885c-6.053,1.199-12.157,1.715-18.353,1.715c-13.363,0.007-27.161-2.427-41.332-5.451
	c-14.172-3.012-28.695-6.606-43.601-8.632c-9.503-1.288-19.034-1.893-28.546-1.893c-3.755,0.001-7.502,0.154-11.248,0.338
	c-32.727,1.606-65.015,9.972-95.193,22.159c-13.621,5.52-26.464,11.523-39.496,14.804c-6.287,1.592-12.753,2.539-18.998,2.537
	c-5.431,0-10.657-0.757-15.564-2.326c-25.932-23.398-52.584-45.256-79.981-65.592c-47.008-34.879-96.425-65.781-145.504-96.702
	c6.195-0.851,12.291-2.172,18.157-3.923c17.943-5.376,34.092-13.853,50.034-21.055c42.83-19.404,89.211-32.155,135.454-32.146
	c7.19,0,14.378,0.307,21.552,0.944c32.326,2.803,66.035,12.639,100.44,12.706c4.361,0,8.737-0.221,13.118-0.586
	c6.674-0.555,13.362-1.521,20.047-3.148c4.016-0.977,6.479-5.024,5.502-9.04c-0.977-4.016-5.024-6.479-9.04-5.502
	c-5.972,1.452-12.014,2.318-18.118,2.81c-3.812,0.307-7.642,0.499-11.511,0.499c-31.485,0.066-64.844-9.544-99.116-12.647
	c-7.629-0.678-15.26-1.003-22.875-1.003c-49.007,0.008-97.363,13.437-141.628,33.479c-16.442,7.464-32.025,15.551-48.143,20.348
	c-8.931,2.671-18.229,4.309-27.204,4.306c-3.36,0-6.665-0.25-9.906-0.729c-29.642-18.807-59.007-37.846-87.47-58.021
	c-38.959-27.595-76.173-57.222-111.757-88.624c10.614-0.694,21.033-3.245,30.865-7.065c20.708-8.085,39.228-20.83,57.595-31.681
	c49.04-29.062,102.039-48.049,154.81-48.032c8.553,0,17.104,0.496,25.643,1.527c18.65,2.242,37.802,7.083,57.259,11.458
	c19.459,4.36,39.245,8.266,59.317,8.276c12.553,0.001,25.226-1.552,37.834-5.538c3.941-1.246,6.126-5.451,4.88-9.391
	c-1.246-3.941-5.45-6.126-9.391-4.88c-10.924,3.451-21.991,4.84-33.323,4.842c-18.098,0.009-36.851-3.597-56.039-7.913
	c-19.191-4.301-38.793-9.3-58.743-11.713c-9.151-1.105-18.305-1.635-27.437-1.635c-56.405,0.018-111.829,20.151-162.438,50.122
	c-18.9,11.224-36.876,23.435-55.394,30.609c-10.162,3.957-20.683,6.356-30.797,6.351c-4.198-0.003-8.32-0.42-12.36-1.288
	c-75.474-68.904-143.458-145.864-205.115-228.356c2.688,0.286,5.378,0.445,8.058,0.444c12.468-0.006,24.737-2.905,36.223-7.368
	c20.706-8.085,39.228-20.829,57.596-31.681c49.039-29.062,102.039-48.049,154.808-48.032c8.553,0,17.104,0.496,25.642,1.527
	c18.651,2.243,37.803,7.084,57.26,11.458c19.459,4.36,39.245,8.266,59.317,8.275c9.399,0.001,18.865-0.871,28.32-2.981
	c3.174-0.709,6.347-1.555,9.516-2.556c3.941-1.246,6.126-5.45,4.88-9.391c-1.246-3.941-5.45-6.126-9.391-4.88
	c-3.991,1.261-8.01,2.162-12.046,2.905c-7.01,1.291-14.087,1.936-21.279,1.937c-18.098,0.009-36.851-3.597-56.038-7.912
	c-19.19-4.301-38.793-9.3-58.744-11.714c-9.151-1.105-18.305-1.635-27.436-1.635c-56.403,0.017-111.828,20.151-162.436,50.122
	c-18.899,11.223-36.879,23.434-55.394,30.609c-10.162,3.957-20.683,6.356-30.797,6.351c-7.612-0.005-14.97-1.405-22.037-4.425
	c-4.756-6.529-9.481-13.084-14.16-19.677c-47.052-66.288-90.288-135.757-130.246-207.207
	c-24.486-43.785-47.766-88.294-69.924-133.273c-2.436-4.944-8.417-6.976-13.361-4.54c-4.943,2.435-6.976,8.417-4.54,13.361l0,0
	c22.844,46.359,46.894,92.258,72.233,137.422c42.396,75.566,88.487,149.017,138.952,218.913
	C580.802,574.058,581.664,575.232,582.52,576.412z"/>
<path style="fill:#FFFFFF;" d="M393.303,809.431c6.979,19.791,31.164,78.443,53.851,32.906c5.427-10.897,4.991-23.654,4.648-35.82
	c-2.326-82.107,5.016-164.479,21.824-244.882c3.369-16.117,7.133-32.721,3.988-48.884c-3.143-16.165-15.308-31.883-31.71-33.367
	c-22.502-2.036-38.205,21.425-46.719,42.377l-0.058,0.142c-24.363,60.143-33.284,126.236-27.091,190.76
	C375.196,745.617,382.289,778.208,393.303,809.431z"/>
<path style="fill:#FFFFFF;" d="M1733.491,1550.22c-0.699,12.102-1.632,24.597,2.414,36.024c4.049,11.425,14.614,21.542,26.716,20.84
	c16.604-0.967,25.481-19.753,29.401-35.936l0.027-0.107c11.193-46.436,10.497-95.522-1.031-141.822
	c-5.886-23.645-14.597-46.599-26.01-68.134c-7.235-13.647-31.223-53.715-42.785-18.095c-2.767,8.521-1.062,17.763,0.512,26.582
	C1733.362,1429.092,1736.979,1489.859,1733.491,1550.22z"/>
</svg>
